<?xml version="1.0" encoding="UTF-8"?>
<svg xmlns="http://www.w3.org/2000/svg" xmlns:xlink="http://www.w3.org/1999/xlink" width="32px" height="32px" viewBox="0 0 32 32" version="1.1" fill="#000000">
<g id="surface1">
<path style=" stroke:none;" d="M 13.332031 24 C 15.699219 24 18 23.207031 19.863281 21.75 L 25.722656 27.609375 L 27.609375 25.722656 L 21.75 19.863281 C 23.207031 18 24 15.703125 24 13.332031 C 24 7.453125 19.214844 2.667969 13.332031 2.667969 C 7.453125 2.667969 2.667969 7.453125 2.667969 13.332031 C 2.667969 19.214844 7.453125 24 13.332031 24 Z M 13.332031 5.332031 C 17.746094 5.332031 21.332031 8.921875 21.332031 13.332031 C 21.332031 17.746094 17.746094 21.332031 13.332031 21.332031 C 8.921875 21.332031 5.332031 17.746094 5.332031 13.332031 C 5.332031 8.921875 8.921875 5.332031 13.332031 5.332031 Z M 13.332031 5.332031 "/>
</g>
</svg>
